<?xml version="1.0" encoding="UTF-8"?>
<!DOCTYPE svg PUBLIC "-//W3C//DTD SVG 1.1//EN" "http://www.w3.org/Graphics/SVG/1.1/DTD/svg11.dtd">
<!-- Creator: CorelDRAW 2021 (64 Bit) -->
<svg xmlns="http://www.w3.org/2000/svg" xml:space="preserve" width="884px" height="500px" version="1.1" style="shape-rendering:geometricPrecision; text-rendering:geometricPrecision; image-rendering:optimizeQuality; fill-rule:evenodd; clip-rule:evenodd"
viewBox="0 0 884 499.998"
 xmlns:xlink="http://www.w3.org/1999/xlink"
 xmlns:xodm="http://www.corel.com/coreldraw/odm/2003">
 <defs>
  <style type="text/css">
   <![CDATA[
    .str0 {stroke:black;stroke-width:5;stroke-linecap:round;stroke-miterlimit:22.9256}
    .fil1 {fill:none}
    .fil0 {fill:black;fill-rule:nonzero}
    .fil2 {fill:#9204D9;fill-rule:nonzero}
   ]]>
  </style>
 </defs>
 <g id="Camada_x0020_1">
  <metadata id="CorelCorpID_0Corel-Layer"/>
  <g>
   <path class="fil0" d="M264.5 188.424c-1.381,0 -2.5,-1.12 -2.5,-2.5 0,-1.381 1.119,-2.5 2.5,-2.5l0 5zm73.304 0l-73.304 0 0 -5 73.304 0 0.301 0.018 -0.301 4.982zm0 -5c1.381,0 2.501,1.119 2.501,2.5 0,1.38 -1.12,2.5 -2.501,2.5l0 -5zm-11.857 92.492l0.069 -5 5.008 -0.159 4.625 -0.597 4.254 -1.004 3.896 -1.376 3.551 -1.72 3.22 -2.037 2.901 -2.327 2.591 -2.595 2.29 -2.84 1.993 -3.06 1.701 -3.255 1.41 -3.424 1.123 -3.565 0.838 -3.676 0.556 -3.759 0.277 -3.81 0.002 -3.831 -0.267 -3.82 -0.534 -3.778 -0.792 -3.707 -1.046 -3.602 -1.292 -3.468 -1.531 -3.303 -1.762 -3.109 -1.985 -2.884 -2.198 -2.633 -2.404 -2.356 -2.601 -2.055 -2.794 -1.731 -2.985 -1.385 -3.178 -1.018 -3.379 -0.626 0.601 -4.964 3.994 0.74 3.778 1.209 3.541 1.643 3.293 2.038 3.035 2.397 2.774 2.717 2.507 3.003 2.24 3.255 1.97 3.474 1.699 3.663 1.424 3.823 1.148 3.952 0.867 4.054 0.582 4.127 0.292 4.171 -0.003 4.187 -0.303 4.175 -0.612 4.132 -0.926 4.063 -1.249 3.962 -1.578 3.831 -1.917 3.669 -2.264 3.472 -2.616 3.244 -2.974 2.976 -3.335 2.675 -3.697 2.338 -4.056 1.964 -4.414 1.559 -4.768 1.125 -5.12 0.662 -5.47 0.174zm0 0c-1.381,-0.019 -2.484,-1.154 -2.465,-2.535 0.018,-1.38 1.154,-2.484 2.534,-2.465l-0.069 5z"/>
  </g>
  <g>
   <path class="fil0" d="M397.463 186.059c-1.38,0 -2.5,-1.119 -2.5,-2.5 0,-1.381 1.12,-2.5 2.5,-2.5l0 5zm26.012 0l-26.012 0 0 -5 26.012 0 2.5 2.5 -2.5 2.5zm0 -5c1.38,0 2.5,1.119 2.5,2.5 0,1.381 -1.12,2.5 -2.5,2.5l0 -5zm2.5 75.805l-5.001 0 0 0 0 -1.418 0 -1.587 0 -1.745 0 -1.891 0 -2.026 0 -2.15 0 -2.263 0 -2.364 0 -2.454 0 -2.533 0 -2.6 0 -2.657 0 -2.702 0 -2.735 0 -2.758 0 -2.769 0 -2.77 0 -2.758 0 -2.735 0 -2.702 0 -2.656 0 -2.601 0 -2.533 0 -2.454 0 -2.364 0 -2.262 0 -2.151 0 -2.026 0 -1.891 0 -1.745 0 -1.587 0 -1.418 5.001 0 0 1.418 0 1.587 0 1.745 0 1.891 0 2.026 0 2.151 0 2.262 0 2.364 0 2.454 0 2.533 0 2.601 0 2.656 0 2.702 0 2.735 0 2.758 0 2.77 0 2.769 0 2.758 0 2.735 0 2.702 0 2.657 0 2.6 0 2.533 0 2.454 0 2.364 0 2.263 0 2.15 0 2.026 0 1.891 0 1.745 0 1.587 0 1.418 0 0zm0 0c0,1.381 -1.12,2.5 -2.5,2.5 -1.381,0 -2.501,-1.119 -2.501,-2.5l5.001 0zm-47.586 23.777l0.313 -4.991 3.425 0.193 3.245 0.137 3.069 0.082 2.898 0.027 2.729 -0.027 2.565 -0.081 2.403 -0.136 2.246 -0.187 2.092 -0.24 1.94 -0.291 1.793 -0.341 1.649 -0.389 1.51 -0.436 1.375 -0.478 1.242 -0.52 1.119 -0.559 1.001 -0.596 0.892 -0.63 0.793 -0.667 0.703 -0.703 0.622 -0.745 0.551 -0.791 0.485 -0.844 0.426 -0.902 0.368 -0.966 0.314 -1.033 0.26 -1.101 0.207 -1.173 0.158 -1.243 0.109 -1.313 0.063 -1.383 0.02 -1.45 5.001 0 -0.023 1.598 -0.071 1.555 -0.126 1.513 -0.187 1.472 -0.255 1.433 -0.328 1.392 -0.411 1.35 -0.499 1.307 -0.594 1.259 -0.695 1.207 -0.8 1.148 -0.906 1.085 -1.014 1.014 -1.119 0.941 -1.224 0.865 -1.328 0.79 -1.432 0.717 -1.539 0.643 -1.645 0.574 -1.759 0.508 -1.875 0.442 -1.996 0.38 -2.122 0.318 -2.254 0.258 -2.39 0.201 -2.532 0.142 -2.68 0.085 -2.832 0.028 -2.989 -0.028 -3.151 -0.084 -3.319 -0.141 -3.491 -0.195zm0 0c-1.378,-0.086 -2.425,-1.273 -2.339,-2.651 0.086,-1.378 1.274,-2.426 2.652,-2.34l-0.313 4.991z"/>
  </g>
  <line class="fil1 str0" x1="440.028" y1="183.559" x2="440.028" y2= "275.781" />
  <g>
   <path class="fil0" d="M463.81 275.781c0,1.381 -1.12,2.5 -2.5,2.5 -1.381,0 -2.501,-1.119 -2.501,-2.5l5.001 0zm0 -92.222l0 92.222 -5.001 0 0 -92.222 4.581 -1.387 0.42 1.387zm-5.001 0c0,-1.381 1.12,-2.5 2.501,-2.5 1.38,0 2.5,1.119 2.5,2.5l-5.001 0zm61.902 93.609l-61.482 -92.222 4.161 -2.774 61.481 92.222 0.42 1.387 -4.58 1.387zm4.16 -2.774c0.766,1.149 0.455,2.701 -0.693,3.467 -1.149,0.766 -2.702,0.455 -3.467,-0.693l4.16 -2.774zm0.42 -90.835l0 92.222 -5 0 0 -92.222 5 0zm-5 0c0,-1.381 1.119,-2.5 2.5,-2.5 1.38,0 2.5,1.119 2.5,2.5l-5 0z"/>
  </g>
  <g>
   <path class="fil0" d="M553.668 275.781c0,1.381 -1.119,2.5 -2.5,2.5 -1.381,0 -2.5,-1.119 -2.5,-2.5l5 0zm0 -92.222l0 92.222 -5 0 0 -92.222 4.58 -1.387 0.42 1.387zm-5 0c0,-1.381 1.119,-2.5 2.5,-2.5 1.381,0 2.5,1.119 2.5,2.5l-5 0zm61.901 93.609l-61.481 -92.222 4.16 -2.774 61.481 92.222 0.42 1.387 -4.58 1.387zm4.16 -2.774c0.766,1.149 0.455,2.701 -0.693,3.467 -1.149,0.766 -2.701,0.455 -3.467,-0.693l4.16 -2.774zm0.42 -90.835l0 92.222 -5 0 0 -92.222 5 0zm-5 0c0,-1.381 1.119,-2.5 2.5,-2.5 1.381,0 2.5,1.119 2.5,2.5l-5 0z"/>
  </g>
  <g>
   <path class="fil0" d="M823.151 181.059c1.381,0 2.501,1.119 2.501,2.5 0,1.381 -1.12,2.5 -2.501,2.5l0 -5zm-49.096 4.936l-1.124 -4.872 0.562 -0.064 1.552 0 1.551 0 1.552 0 1.552 0 1.552 0 1.552 0 1.552 0 1.552 0 1.552 0 1.551 0 1.552 0 1.552 0 1.552 0 1.551 0 1.552 0 1.552 0 1.552 0 1.552 0 1.552 0 1.551 0 1.552 0 1.552 0 1.552 0 1.552 0 1.552 0 1.552 0 1.551 0 1.552 0 1.552 0 1.552 0 1.552 0 1.551 0 0 5 -1.551 0 -1.552 0 -1.552 0 -1.552 0 -1.552 0 -1.551 0 -1.552 0 -1.552 0 -1.552 0 -1.552 0 -1.552 0 -1.552 0 -1.551 0 -1.552 0 -1.552 0 -1.552 0 -1.552 0 -1.552 0 -1.551 0 -1.552 0 -1.552 0 -1.552 0 -1.551 0 -1.552 0 -1.552 0 -1.552 0 -1.552 0 -1.552 0 -1.552 0 -1.552 0 -1.551 0 -1.552 0 0.562 -0.064zm-0.562 0.064c-1.381,0 -2.501,-1.119 -2.501,-2.5 0,-1.381 1.12,-2.5 2.501,-2.5l0 5zm-4.677 42.293l-0.106 4.999 -0.3 -0.024 -1.851 -0.391 -1.776 -0.622 -1.689 -0.83 -1.594 -1.017 -1.495 -1.186 -1.394 -1.337 -1.291 -1.473 -1.186 -1.595 -1.078 -1.705 -0.966 -1.804 -0.85 -1.889 -0.731 -1.966 -0.605 -2.029 -0.475 -2.084 -0.338 -2.125 -0.194 -2.158 -0.045 -2.177 0.115 -2.186 0.279 -2.182 0.453 -2.166 0.635 -2.138 0.824 -2.092 1.021 -2.035 1.225 -1.958 1.435 -1.867 1.647 -1.758 1.862 -1.633 2.079 -1.492 2.297 -1.339 2.515 -1.171 2.736 -0.994 2.956 -0.805 1.124 4.872 -2.575 0.7 -2.335 0.849 -2.11 0.983 -1.893 1.103 -1.688 1.212 -1.494 1.311 -1.312 1.4 -1.138 1.482 -0.973 1.557 -0.814 1.623 -0.663 1.682 -0.514 1.731 -0.369 1.772 -0.23 1.801 -0.095 1.817 0.037 1.823 0.164 1.816 0.285 1.794 0.402 1.762 0.511 1.714 0.615 1.654 0.711 1.58 0.8 1.494 0.881 1.394 0.953 1.283 1.016 1.159 1.068 1.025 1.111 0.882 1.144 0.731 1.168 0.575 1.188 0.417 1.21 0.256 -0.3 -0.025zm0.3 0.025c1.367,0.195 2.317,1.461 2.122,2.828 -0.195,1.367 -1.462,2.317 -2.828,2.122l0.706 -4.95zm37.357 0.772l-0.274 4.993 0.084 0.003 -1.174 -0.025 -1.174 -0.025 -1.174 -0.025 -1.174 -0.025 -1.174 -0.024 -1.175 -0.025 -1.174 -0.025 -1.174 -0.025 -1.174 -0.025 -1.174 -0.024 -1.175 -0.025 -1.173 -0.025 -1.175 -0.025 -1.174 -0.025 -1.174 -0.024 -1.174 -0.025 -1.174 -0.025 -1.174 -0.025 -1.175 -0.024 -1.174 -0.025 -1.174 -0.025 -1.174 -0.025 -1.174 -0.025 -1.175 -0.024 -1.174 -0.025 -1.174 -0.025 -1.174 -0.025 -1.174 -0.025 -1.174 -0.024 -1.174 -0.025 -1.174 -0.025 -1.175 -0.025 0.106 -4.999 1.174 0.025 1.174 0.025 1.174 0.025 1.174 0.024 1.175 0.025 1.174 0.025 1.173 0.025 1.175 0.025 1.174 0.025 1.174 0.024 1.174 0.025 1.174 0.025 1.175 0.025 1.174 0.025 1.174 0.024 1.174 0.025 1.174 0.025 1.174 0.025 1.175 0.025 1.174 0.024 1.174 0.025 1.174 0.025 1.174 0.025 1.175 0.025 1.174 0.025 1.173 0.024 1.175 0.025 1.174 0.025 1.174 0.025 1.174 0.025 1.174 0.024 1.175 0.025 0.084 0.003zm-0.084 -0.003c1.38,0.029 2.475,1.172 2.446,2.552 -0.029,1.381 -1.172,2.476 -2.552,2.447l0.106 -4.999zm0.21 49.135l0 -5 0.31 0.019 1.37 0.068 1.307 -0.136 1.263 -0.328 1.23 -0.514 1.198 -0.699 1.161 -0.878 1.114 -1.051 1.056 -1.214 0.988 -1.362 0.908 -1.494 0.82 -1.609 0.721 -1.708 0.617 -1.787 0.504 -1.848 0.386 -1.891 0.262 -1.916 0.134 -1.921 0 -1.909 -0.136 -1.877 -0.274 -1.829 -0.416 -1.763 -0.557 -1.68 -0.7 -1.583 -0.843 -1.473 -0.989 -1.354 -1.14 -1.228 -1.299 -1.093 -1.47 -0.952 -1.658 -0.801 -1.863 -0.634 -2.084 -0.45 -2.32 -0.244 0.274 -4.993 2.828 0.299 2.629 0.568 2.424 0.825 2.214 1.068 1.996 1.292 1.775 1.492 1.55 1.667 1.327 1.816 1.111 1.94 0.903 2.038 0.703 2.119 0.514 2.178 0.335 2.223 0.163 2.25 -0.001 2.262 -0.156 2.259 -0.307 2.242 -0.451 2.211 -0.59 2.164 -0.725 2.102 -0.857 2.026 -0.985 1.935 -1.112 1.829 -1.239 1.705 -1.363 1.565 -1.49 1.404 -1.618 1.223 -1.744 1.015 -1.864 0.777 -1.973 0.51 -2.062 0.213 -2.12 -0.105 0.311 0.02zm-0.311 -0.02c-1.369,-0.171 -2.341,-1.421 -2.17,-2.79 0.171,-1.37 1.421,-2.342 2.791,-2.171l-0.621 4.961zm-49.348 -4.98l49.659 0 0 5 -49.659 0 0 -5zm0 5c-1.381,0 -2.5,-1.119 -2.5,-2.5 0,-1.381 1.119,-2.5 2.5,-2.5l0 5z"/>
  </g>
  <g>
   <path class="fil0" d="M695.279 183.559c0,-1.381 1.119,-2.5 2.5,-2.5 1.381,0 2.5,1.119 2.5,2.5l-5 0zm0 44.929l0 -44.929 5 0 0 44.929 -5 0zm5 0c0,1.381 -1.119,2.5 -2.5,2.5 -1.381,0 -2.5,-1.119 -2.5,-2.5l5 0z"/>
  </g>
  <g>
   <g>
    <path class="fil2" d="M86.104 200.897c1.762,-1.333 4.271,-0.986 5.604,0.775 1.333,1.762 0.986,4.271 -0.775,5.604l-4.829 -6.379zm-45.277 34.275l45.277 -34.275 4.829 6.379 -45.277 34.274 -4.721 0.079 -0.108 -6.457zm4.829 6.378c-1.762,1.333 -4.271,0.987 -5.604,-0.774 -1.333,-1.762 -0.986,-4.271 0.775,-5.604l4.829 6.378zm38.995 30.926l-43.716 -30.847 4.612 -6.536 43.717 30.847 -4.613 6.536zm4.613 -6.536c1.804,1.273 2.235,3.769 0.962,5.574 -1.274,1.805 -3.77,2.236 -5.575,0.962l4.613 -6.536z"/>
   </g>
   <g>
    <path class="fil2" d="M185.246 208.989c-1.762,-1.333 -2.108,-3.842 -0.775,-5.603 1.333,-1.761 3.842,-2.108 5.603,-0.775l-4.828 6.378zm45.278 34.275l-45.278 -34.275 4.828 -6.378 45.278 34.275 -0.108 6.457 -4.72 -0.079zm4.828 -6.378c1.762,1.333 2.108,3.842 0.775,5.603 -1.333,1.762 -3.842,2.108 -5.603,0.775l4.828 -6.378zm-48.437 30.768l43.717 -30.847 4.612 6.536 -43.716 30.847 -4.613 -6.536zm4.613 6.536c-1.805,1.274 -4.301,0.843 -5.575,-0.962 -1.274,-1.805 -0.843,-4.301 0.962,-5.574l4.613 6.536z"/>
   </g>
   <g>
    <path class="fil2" d="M155.211 190.85c1,-1.97 3.408,-2.755 5.377,-1.755 1.97,1.001 2.755,3.409 1.754,5.378l-7.131 -3.623zm-45.278 89.113l45.278 -89.113 7.131 3.623 -45.277 89.114 -7.132 -3.624zm7.132 3.624c-1,1.969 -3.409,2.755 -5.378,1.754 -1.969,-1 -2.754,-3.409 -1.754,-5.378l7.132 3.624z"/>
   </g>
  </g>
 </g>
</svg>
